<svg height="512pt" viewBox="0 0 512 512" width="512pt" xmlns="http://www.w3.org/2000/svg"><path d="m26.484375 0h459.03125c14.628906 0 26.484375 11.855469 26.484375 26.484375v459.03125c0 14.628906-11.855469 26.484375-26.484375 26.484375h-459.03125c-14.628906 0-26.484375-11.855469-26.484375-26.484375v-459.03125c0-14.628906 11.855469-26.484375 26.484375-26.484375zm0 0" fill="#e6e7e8"/><path d="m512 26.484375v44.136719h-512v-44.136719c0-14.628906 11.855469-26.484375 26.484375-26.484375h459.03125c14.628906 0 26.484375 11.855469 26.484375 26.484375zm0 0" fill="#a5a5a4"/><path d="m35.488281 44.136719c-4.875.027343-8.847656-3.90625-8.875-8.78125-.023437-4.875 3.910157-8.847657 8.785157-8.871094h.089843c4.875 0 8.828125 3.949219 8.828125 8.824219 0 4.878906-3.953125 8.828125-8.828125 8.828125zm0 0" fill="#24ae5f"/><path d="m70.621094 44.136719c-4.875.027343-8.847656-3.90625-8.871094-8.78125-.027344-4.875 3.90625-8.847657 8.78125-8.871094h.089844c4.875 0 8.828125 3.949219 8.828125 8.824219 0 4.878906-3.953125 8.828125-8.828125 8.828125zm0 0" fill="#f0c419"/><path d="m105.976562 44.136719c-4.875.011719-8.839843-3.929688-8.851562-8.804688s3.929688-8.835937 8.804688-8.847656h.089843c4.875 0 8.828125 3.949219 8.828125 8.824219 0 4.878906-3.953125 8.828125-8.828125 8.828125zm0 0" fill="#c03a2b"/><path d="m88.277344 344.277344h52.964844c9.75 0 17.65625 7.902344 17.65625 17.652344v114.761718h-88.277344v-114.761718c0-9.75 7.902344-17.652344 17.65625-17.652344zm0 0" fill="#4482c3"/><path d="m238.34375 264.828125h52.964844c9.753906 0 17.65625 7.902344 17.65625 17.65625v194.207031h-88.273438v-194.207031c0-9.753906 7.902344-17.65625 17.652344-17.65625zm0 0" fill="#e64c3c"/><path d="m388.414062 185.378906h52.964844c9.75 0 17.65625 7.90625 17.65625 17.65625v273.65625h-88.277344v-273.65625c0-9.75 7.90625-17.65625 17.65625-17.65625zm0 0" fill="#955ba5"/><path d="m105.929688 291.308594c-2.90625.003906-5.632813-1.429688-7.28125-3.824219-1.644532-2.398437-2.007813-5.457031-.960938-8.171875l44.136719-114.757812c.933593-2.4375 2.898437-4.339844 5.367187-5.191407 2.464844-.851562 5.183594-.566406 7.421875.777344l80.449219 48.261719 39.722656-71.503906c1.261719-2.273438 3.464844-3.878907 6.015625-4.378907 2.550781-.503906 5.195313.148438 7.226563 1.773438l38.320312 30.660156 73.878906-65.679687c3.65625-3.242188 9.246094-2.90625 12.488282.75 3.242187 3.660156 2.90625 9.25-.75 12.492187l-79.449219 70.621094c-3.214844 2.859375-8.027344 2.984375-11.386719.292969l-35.996094-28.769532-39.0625 70.320313c-1.164062 2.089843-3.125 3.621093-5.4375 4.238281s-4.773437.269531-6.824218-.964844l-79.273438-47.554687-40.359375 104.953125c-1.3125 3.410156-4.589843 5.660156-8.246093 5.65625zm0 0" fill="#24ae5f"/><path d="m397.242188 150.070312c-.726563 0-1.449219-.085937-2.15625-.265624-4.726563-1.183594-7.601563-5.980469-6.417969-10.707032l5.441406-21.769531-30.457031 6.082031c-4.695313.769532-9.15625-2.316406-10.089844-6.980468-.929688-4.664063 2-9.230469 6.628906-10.320313l44.136719-8.828125c2.96875-.59375 6.03125.375 8.121094 2.5625 2.085937 2.191406 2.90625 5.296875 2.171875 8.230469l-8.824219 35.3125c-.984375 3.925781-4.507813 6.679687-8.554687 6.683593zm0 0" fill="#24ae5f"/><path d="m105.929688 485.515625c-4.875 0-8.828126-3.949219-8.828126-8.824219v-70.621094c0-4.875 3.953126-8.828124 8.828126-8.828124s8.828124 3.953124 8.828124 8.828124v70.621094c0 4.875-3.953124 8.824219-8.828124 8.824219zm0 0" fill="#285680"/><path d="m256 485.515625c-4.875 0-8.828125-3.949219-8.828125-8.824219v-150.070312c0-4.875 3.953125-8.828125 8.828125-8.828125s8.828125 3.953125 8.828125 8.828125v150.070312c0 4.875-3.953125 8.824219-8.828125 8.824219zm0 0" fill="#c03a2b"/><path d="m406.070312 485.515625c-4.875 0-8.828124-3.949219-8.828124-8.824219v-238.347656c0-4.875 3.953124-8.828125 8.828124-8.828125s8.828126 3.953125 8.828126 8.828125v238.347656c0 4.875-3.953126 8.824219-8.828126 8.824219zm0 0" fill="#894b9d"/><path d="m476.691406 485.515625h-441.382812c-4.875 0-8.824219-3.949219-8.824219-8.824219v-370.761718c0-4.875 3.949219-8.828126 8.824219-8.828126 4.878906 0 8.828125 3.953126 8.828125 8.828126v361.933593h432.554687c4.875 0 8.824219 3.949219 8.824219 8.828125 0 4.875-3.949219 8.824219-8.824219 8.824219zm0 0" fill="#5e5f62"/></svg>