<svg height="512pt" viewBox="-59 0 512 512.00001" width="512pt" xmlns="http://www.w3.org/2000/svg"><path d="m44.121094 250.519531h306.605468v233.289063h-306.605468zm0 0" fill="#ad9386"/><path d="m352.960938 512c9.992187 0 17.851562-8.644531 16.792968-18.578125-9.269531-86.984375-82.886718-154.734375-172.328125-154.734375-89.445312 0-163.0625 67.75-172.332031 154.734375-1.058594 9.933594 6.800781 18.578125 16.792969 18.578125zm0 0" fill="#495059"/><path d="m189.925781 452.339844h15v59.660156h-15zm0 0" fill="#41464f"/><path d="m325.457031 406.183594c6.492188-3.199219 8.085938-11.78125 3.132813-17.0625-32.832032-35.027344-79.484375-56.949219-131.164063-56.949219-51.683593 0-98.335937 21.921875-131.167969 56.949219-4.953124 5.28125-3.359374 13.859375 3.132813 17.0625l114.667969 56.542968c8.425781 4.15625 18.304687 4.15625 26.730468 0zm0 0" fill="#f6c273"/><path d="m88.648438 254.75c0-21.496094-19.84375-38.925781-44.324219-38.925781s-44.324219 17.429687-44.324219 38.925781c0 21.5 19.84375 38.925781 44.324219 38.925781s44.324219-17.425781 44.324219-38.925781zm0 0" fill="#ebcebe"/><path d="m394.847656 254.75c0-21.496094-19.84375-38.925781-44.324218-38.925781-24.480469 0-44.324219 17.429687-44.324219 38.925781 0 21.5 19.84375 38.925781 44.324219 38.925781 24.480468 0 44.324218-17.425781 44.324218-38.925781zm0 0" fill="#ebcebe"/><path d="m83.121094 373.292969c31.148437 23.507812 70.964844 37.640625 114.304687 37.640625 43.339844 0 83.152344-14.132813 114.300781-37.640625-31.09375-25.671875-70.925781-41.121094-114.300781-41.121094-43.378906 0-83.210937 15.449219-114.304687 41.121094zm0 0" fill="#e6b469"/><path d="m358.339844 244.945312c0-80.882812-72.042969-146.453124-160.914063-146.453124-88.875 0-160.917969 65.570312-160.917969 146.453124 0 80.878907 72.042969 146.449219 160.917969 146.449219 88.871094 0 160.914063-65.570312 160.914063-146.449219zm0 0" fill="#f8dccc"/><path d="m197.425781 90.492188c-85.90625 0-157.03125 58.941406-167.566406 134.914062-.492187 3.546875 2.585937 6.585938 6.121094 6 64.613281-10.75 142.429687-44.507812 161.445312-70.824219 19.011719 26.316407 96.828125 60.074219 161.441407 70.824219 3.535156.585938 6.613281-2.453125 6.121093-6-10.535156-75.972656-81.660156-134.914062-167.5625-134.914062zm0 0" fill="#ad9386"/><path d="m38.722656 209.660156 5.117188 46.964844c.34375 3.167969-3.289063 5.191406-5.800782 3.230469-2.6875-2.101563-6.460937-2.09375-9.136718.015625-3.894532 3.074218-9.386719 3.074218-13.285156 0-2.675782-2.109375-6.449219-2.117188-9.136719-.015625-2.507813 1.960937-6.144531-.0625-5.800781-3.230469l5.117187-46.964844zm0 0" fill="#f6c273"/><path d="m3.59375 229.902344c5.183594 3.949218 11.648438 6.296875 18.667969 6.296875 7.015625 0 13.484375-2.347657 18.667969-6.296875l-2.207032-20.242188h-32.921875zm0 0" fill="#e6b469"/><path d="m22.261719 191.265625c-4.144531 0-7.5-3.355469-7.5-7.5v-101.246094c0-4.144531 3.355469-7.5 7.5-7.5 4.140625 0 7.5 3.355469 7.5 7.5v101.246094c0 4.140625-3.359375 7.5-7.5 7.5zm0 0" fill="#f6c273"/><path d="m43.863281 205.367188c0 11.929687-9.671875 21.601562-21.601562 21.601562-11.929688 0-21.601563-9.671875-21.601563-21.601562 0-11.929688 9.671875-21.601563 21.601563-21.601563 11.929687 0 21.601562 9.671875 21.601562 21.601563zm0 0" fill="#f8e47c"/><path d="m232.242188 34.816406c0 19.230469-15.589844 34.820313-34.816407 34.820313-19.230469 0-34.820312-15.589844-34.820312-34.820313 0-19.226562 15.589843-34.816406 34.820312-34.816406 19.226563 0 34.816407 15.589844 34.816407 34.816406zm0 0" fill="#f8e47c"/><path d="m376.160156 82.519531h-357.472656c-10.320312 0-18.6875-8.367187-18.6875-18.6875v-10.328125c0-10.320312 8.367188-18.6875 18.6875-18.6875h357.472656c10.320313 0 18.6875 8.367188 18.6875 18.6875v10.328125c0 10.320313-8.367187 18.6875-18.6875 18.6875zm0 0" fill="#495059"/><path d="m338.847656 82.519531v68.550781c0 10.515626-8.890625 18.828126-19.382812 18.117188-26.179688-1.773438-73.1875-3.121094-104.710938 6.535156-11.277344 3.457032-23.382812 3.457032-34.65625 0-31.527344-9.65625-78.535156-8.304687-104.714844-6.535156-10.492187.710938-19.382812-7.601562-19.382812-18.117188v-68.550781zm0 0" fill="#495059"/><path d="m56 151.070312c0 10.511719 8.890625 18.828126 19.378906 18.117188 15.734375-1.0625 38.992188-1.972656 61.890625-.433594-5.636719-13.894531-7.898437-31.019531-8.800781-46.265625-.464844-7.792969 5.773438-14.347656 13.582031-14.347656h196.796875v-25.621094h-282.847656zm0 0" fill="#41464f"/><path d="m329.082031 130.707031c-22.425781-1.921875-78.425781-5.203125-114.335937 5.800781-11.296875 3.460938-23.347656 3.460938-34.644532 0-35.910156-11.003906-91.910156-7.722656-114.335937-5.800781-5.253906.449219-9.765625-3.703125-9.765625-8.976562v29.339843c0 10.511719 8.890625 18.828126 19.382812 18.117188 26.179688-1.773438 73.1875-3.121094 104.714844 6.535156 11.273438 3.453125 23.378906 3.453125 34.65625 0 31.523438-9.660156 78.53125-8.308594 104.710938-6.535156 10.492187.710938 19.382812-7.601562 19.382812-18.117188v-29.339843c0 5.273437-4.507812 9.425781-9.765625 8.976562zm0 0" fill="#f6c273"/><path d="m137.269531 168.75c-4.835937-11.917969-7.183593-26.21875-8.328125-39.671875-25.386718-1.082031-50.039062.503906-63.175781 1.628906-5.253906.449219-9.765625-3.703125-9.765625-8.976562v29.339843c0 10.511719 8.890625 18.828126 19.382812 18.117188 15.734376-1.066406 38.988282-1.972656 61.886719-.4375zm0 0" fill="#e6b469"/><path d="m135.273438 281.320312c0-15.980468-16.269532-28.9375-36.339844-28.9375-20.074219 0-36.34375 12.957032-36.34375 28.9375 0 15.984376 16.269531 28.941407 36.34375 28.941407 20.070312 0 36.339844-12.957031 36.339844-28.941407zm0 0" fill="#f8b8bd"/><path d="m332.257812 281.320312c0-15.980468-16.269531-28.9375-36.34375-28.9375-20.070312 0-36.339843 12.957032-36.339843 28.9375 0 15.984376 16.269531 28.941407 36.339843 28.941407 20.074219 0 36.34375-12.957031 36.34375-28.941407zm0 0" fill="#f8b8bd"/><g fill="#495059"><path d="m105.007812 254.648438c-4.144531 0-7.5-3.355469-7.5-7.5v-15.597657c0-4.144531 3.355469-7.5 7.5-7.5 4.140626 0 7.5 3.355469 7.5 7.5v15.597657c0 4.144531-3.359374 7.5-7.5 7.5zm0 0"/><path d="m197.425781 285.414062c-14.542969 0-26.332031-11.785156-26.332031-26.328124v-19.144532c0-3.96875 3.21875-7.1875 7.1875-7.1875h38.285156c3.96875 0 7.1875 3.21875 7.1875 7.1875v19.144532c0 14.542968-11.789062 26.328124-26.328125 26.328124zm0 0"/><path d="m289.84375 254.648438c-4.144531 0-7.5-3.355469-7.5-7.5v-15.597657c0-4.144531 3.355469-7.5 7.5-7.5 4.140625 0 7.5 3.355469 7.5 7.5v15.597657c0 4.144531-3.359375 7.5-7.5 7.5zm0 0"/></g></svg>